<?xml version="1.0" encoding="UTF-8" standalone="no"?>
<svg
   width="400"
   height="400"
   id="screenshot-3ea86dca-abcb-80e7-8006-7b1a67d35205"
   viewBox="0 0 399.99999 399.99999"
   fill="none"
   version="1.1"
   xmlns="http://www.w3.org/2000/svg"
   xmlns:svg="http://www.w3.org/2000/svg">
  <defs
     id="defs26" />
  <rect
     style="opacity:1;fill:#000000;fill-opacity:1;stroke-width:0.378304"
     id="rect2-1"
     width="400"
     height="400"
     x="0"
     y="0" />
  <path
     id="rect2"
     style="opacity:1;fill:#ffffff;fill-opacity:1;stroke-width:0.378304"
     d="M 7,0 V 7 H 0 v 1 h 7 v 9.5 4.349609 H 0 v 1 h 7 v 9.5 4.34961 H 0 v 1 h 7 v 9.5 4.349609 H 0 v 1 h 7 v 9.5 4.347656 H 0 v 1 h 7 v 9.501954 4.347656 H 0 v 1 h 7 v 9.5 4.349609 H 0 v 1 h 7 v 9.499997 4.34961 H 0 v 1 h 7 v 9.5 4.34961 H 0 v 1 h 7 v 9.5 4.34766 H 0 v 1 h 7 v 9.5 4.34961 H 0 v 1 h 7 v 9.5 4.34961 H 0 v 1 h 7 v 9.5 4.34961 H 0 v 1 h 7 v 9.5 4.34961 H 0 v 1 h 7 v 9.5 4.3496 H 0 v 1 h 7 v 9.5 4.34766 H 0 v 1 h 7 v 9.50195 4.34766 H 0 v 1 h 7 v 9.5 4.34961 H 0 v 1 h 7 v 9.5 4.34961 H 0 v 1 h 7 v 9.5 4.34766 H 0 v 1 H 7 V 299.63672 303 H 0 v 1 h 7 v 9.5 4.34961 H 0 v 1 h 7 v 9.5 4.34961 H 0 v 1 h 7 v 9.5 4.34766 H 0 v 1 h 7 v 9.50195 4.34765 H 0 v 1 h 7 v 9.5 4.34961 H 0 v 1 h 7 v 9.5 4.34961 H 0 v 1 H 7 V 400 h 1 v -6.9043 h 9.5 4.349609 V 400 h 1 v -6.9043 h 9.5 4.34961 V 400 h 1 v -6.9043 h 9.5 4.349609 V 400 h 1 v -6.9043 h 9.5 4.34961 V 400 h 1 v -6.9043 h 9.5 4.347656 V 400 h 1 v -6.9043 h 9.5 4.349609 V 400 h 1 v -6.9043 h 9.499997 4.34961 V 400 h 1 v -6.9043 h 9.5 4.34961 V 400 h 1 v -6.9043 h 9.5 4.34766 V 400 h 1 v -6.9043 H 151.14453 155 V 400 h 1 v -6.9043 h 9.5 4.34961 V 400 h 1 v -6.9043 h 9.5 4.34961 V 400 h 1 v -6.9043 h 9.5 4.34961 V 400 h 1 v -6.9043 h 9.5 4.34765 V 400 h 1 v -6.9043 h 9.5 4.34961 V 400 h 1 v -6.9043 h 9.5 4.34961 V 400 h 1 v -6.9043 h 9.5 4.34961 V 400 h 1 v -6.9043 h 9.5 4.34961 V 400 h 1 v -6.9043 h 9.5 4.34766 V 400 h 1 v -6.9043 H 299.14453 303 V 400 h 1 v -6.9043 h 9.5 4.34961 V 400 h 1 v -6.9043 h 9.5 4.34961 V 400 h 1 v -6.9043 h 9.5 4.34961 V 400 h 1 v -6.9043 h 9.5 4.34765 V 400 h 1 v -6.9043 h 9.5 4.34961 V 400 h 1 v -6.9043 h 9.5 4.34961 V 400 h 1 v -6.9043 H 400 v -1 h -6.9043 v -9.5 -4.34961 H 400 v -1 h -6.9043 v -4.34765 -9.50196 H 400 v -1 h -6.9043 v -9.5 -4.34765 H 400 v -1 h -6.9043 v -9.50195 -4.34766 H 400 v -1 h -6.9043 v -9.5 -4.34961 H 400 v -1 h -6.9043 V 313.50195 304 H 400 v -1 h -6.9043 v -9.5 -3.36328 H 400 v -1 h -6.9043 v -9.50195 -4.34766 H 400 v -1 h -6.9043 v -9.5 -4.34961 H 400 v -1 h -6.9043 v -4.34766 -9.5 H 400 v -1.00195 h -6.9043 v -9.5 -4.34766 H 400 v -1 h -6.9043 v -9.50195 -4.34766 H 400 v -1 h -6.9043 v -9.5 -4.3496 H 400 v -1 h -6.9043 v -9.5 -4.34961 H 400 v -1 h -6.9043 v -9.5 -4.34961 H 400 v -1 h -6.9043 v -9.5 -4.34961 H 400 v -1 h -6.9043 v -9.5 -4.34961 H 400 v -1 h -6.9043 v -9.5 -4.34766 H 400 v -1 h -6.9043 v -9.5 -4.34961 H 400 v -1 h -6.9043 v -9.5 -4.349607 H 400 v -1 h -6.9043 v -9.5 -4.349609 H 400 v -1 h -6.9043 v -9.5 -4.347656 H 400 v -1 h -6.9043 v -9.5 -4.34961 H 400 v -1 h -6.9043 v -9.5 -4.349609 H 400 v -1 h -6.9043 v -9.5 -4.34961 H 400 v -1 h -6.9043 V 17.501953 8 H 400 V 7 h -6.9043 V 0 h -1 v 7 h -4.34961 -9.5 V 0 h -1 v 7 h -4.34961 -9.5 V 0 h -1 v 7 h -4.34765 -9.50195 V 0 h -1 v 7 h -4.34766 -9.50195 V 0 h -1 v 7 h -4.34766 -9.5 V 0 h -1 V 7 H 313.5 304 V 0 h -1 v 7 h -3.85547 -9.50195 V 0 h -1 v 7 h -4.34766 -9.5 V 0 h -1 v 7 h -4.34961 -9.5 V 0 h -1 v 7 h -4.34961 -9.5 V 0 h -1 v 7 h -4.34961 -9.5 V 0 h -1 v 7 h -4.34961 -9.5 V 0 h -1 v 7 h -4.34765 -9.50195 V 0 h -1 v 7 h -4.34766 -9.50195 V 0 h -1 v 7 h -4.34766 -9.5 V 0 h -1 V 7 H 165.5 156 V 0 h -1 v 7 h -3.85547 -9.50195 V 0 h -1 v 7 h -4.34766 -9.5 V 0 h -1 v 7 h -4.34961 -9.5 V 0 h -1 V 7 H 106.5957 97.095703 V 0 h -1 v 7 h -4.349609 -9.5 V 0 h -1 V 7 H 76.898438 67.396484 V 0 h -1 V 7 H 62.048828 52.546875 V 0 h -1 V 7 H 47.199219 37.697266 V 0 h -1 v 7 h -4.347657 -9.5 V 0 h -1 V 7 H 17.5 8 V 0 Z m 1,8 h 9.5 4.349609 v 4.349609 9.5 H 17.5 8 v -9.5 z m 14.849609,0 h 9.5 4.34961 v 4.349609 h -0.002 v 9.5 h -4.347657 -9.5 v -9.5 z m 14.84961,0 h 9.5 4.349609 v 9.5 4.349609 h -4.349609 -9.501953 v -4.347656 h 0.002 z m 14.849609,0 h 9.5 4.34961 v 4.349609 h -0.002 v 9.5 h -4.347656 -9.5 v -9.5 z m 14.84961,0 h 9.5 4.347656 v 4.349609 9.5 H 76.898438 67.396484 V 17.5 h 0.002 z m 14.847656,0 h 9.5 4.349609 v 4.349609 9.5 h -4.349609 -9.5 v -9.5 z m 14.849609,0 h 9.499997 4.34961 v 9.5 4.349609 h -4.34961 -9.499997 v -4.347656 z m 14.849607,0 h 9.5 4.34961 v 4.349609 9.5 h -4.34961 -9.5 v -9.5 z m 14.84961,0 h 9.5 4.34766 v 4.349609 9.5 h -4.34766 -9.5 v -9.5 z m 14.84766,0 H 151.14453 155 v 4.349609 9.5 h -3.85547 -9.50195 v -9.5 z M 156,8 h 9.5 4.34961 v 4.349609 9.5 H 165.5 156 v -9.5 z m 14.84961,0 h 9.5 4.34961 v 4.349609 h -0.002 v 9.5 h -4.34766 -9.5 v -9.5 z m 14.84961,0 h 9.5 4.34766 v 9.5 4.349609 h -4.34766 -9.50195 v -4.347656 h 0.002 z m 14.84766,0 h 9.50195 4.34765 v 4.349609 9.5 h -4.34765 -9.50195 v -9.5 z m 14.8496,0 h 9.5 4.34961 v 4.349609 9.5 h -4.34961 -9.5 v -9.5 z m 14.84961,0 h 9.5 4.34961 v 4.349609 9.5 h -4.34961 -9.5 v -9.5 z m 14.84961,0 h 9.5 4.34961 v 9.5 4.349609 h -4.34961 -9.5 v -4.347656 z m 14.84961,0 h 9.5 4.34961 v 4.349609 9.5 h -4.34961 -9.5 v -9.5 z m 14.84961,0 h 9.5 4.34766 v 4.349609 9.5 h -4.34766 -9.5 v -9.5 z m 14.84766,0 H 299.14453 303 v 4.349609 9.5 h -3.85547 -9.50195 v -9.5 z M 304,8 h 9.5 4.34961 v 4.349609 9.5 H 313.5 304 v -9.5 z m 14.84961,0 h 9.5 4.34961 v 4.349609 h -0.002 v 9.5 h -4.34766 -9.5 v -9.5 z m 14.84961,0 h 9.5 4.34766 v 9.5 4.349609 h -4.34766 -9.50195 v -4.347656 h 0.002 z m 14.84766,0 h 9.50195 4.34765 v 4.349609 9.5 h -4.34765 -9.50195 v -9.5 z m 14.8496,0 h 9.5 4.34961 v 4.349609 9.5 h -4.34961 -9.5 v -9.5 z m 14.84961,0 h 9.5 4.34961 v 4.349609 9.5 h -4.34961 -9.5 v -9.5 z M 8,22.849609 h 9.5 4.349609 v 4.347657 9.501953 H 17.5 8 v -9.5 z m 14.849609,0 h 9.5 4.34961 v 4.34961 9.5 h -4.34961 -9.5 v -9.501953 z m 14.84961,0 h 9.5 4.349609 v 4.34961 9.5 h -4.349609 -9.5 v -9.5 z m 14.849609,0 h 9.5 4.34961 v 4.347657 h -0.002 v 9.501953 h -4.347656 -9.5 v -9.5 z m 14.84961,0 h 9.5 4.347656 v 4.347657 9.501953 h -4.347656 -9.501954 v -4.34961 h 0.002 z m 14.847656,0 h 9.5 4.349609 v 4.34961 9.5 h -4.349609 -9.5 v -9.501953 z m 14.849609,0 h 9.499997 4.34961 v 4.34961 9.5 h -4.34961 -9.499997 v -9.5 z m 14.849607,0 h 9.5 4.34961 v 4.347657 9.501953 h -4.34961 -9.5 v -9.5 z m 14.84961,0 h 9.5 4.34766 v 4.347657 9.501953 h -4.34766 -9.5 v -9.5 z m 14.84766,0 H 151.14453 155 v 4.347657 9.501953 h -3.85547 -9.50195 v -9.501953 z m 14.35742,0 h 9.5 4.34961 v 4.347657 9.501953 H 165.5 156 v -9.5 z m 14.84961,0 h 9.5 4.34961 v 4.34961 9.5 h -4.34961 -9.5 v -9.501953 z m 14.84961,0 h 9.5 4.34961 v 4.34961 h -0.002 v 9.5 h -4.34766 -9.5 v -9.5 z m 14.84961,0 h 9.5 4.34765 v 4.347657 9.501953 h -4.34765 -9.50195 v -4.34961 h 0.002 z m 14.84765,0 h 9.5 4.34961 v 4.347657 9.501953 h -4.34961 -9.5 v -9.5 z m 14.84961,0 h 9.5 4.34961 v 4.34961 9.5 h -4.34961 -9.5 v -9.501953 z m 14.84961,0 h 9.5 4.34961 v 4.34961 9.5 h -4.34961 -9.5 v -9.5 z m 14.84961,0 h 9.5 4.34961 v 4.347657 9.501953 h -4.34961 -9.5 v -9.5 z m 14.84961,0 h 9.5 4.34766 v 4.347657 9.501953 h -4.34766 -9.5 v -9.5 z m 14.84766,0 H 299.14453 303 v 4.347657 9.501953 h -3.85547 -9.50195 v -9.501953 z m 14.35742,0 h 9.5 4.34961 v 4.347657 9.501953 H 313.5 304 v -9.5 z m 14.84961,0 h 9.5 4.34961 v 4.34961 9.5 h -4.34961 -9.5 v -9.501953 z m 14.84961,0 h 9.5 4.34961 v 4.34961 h -0.002 v 9.5 h -4.34766 -9.5 v -9.5 z m 14.84961,0 h 9.5 4.34765 v 4.347657 9.501953 h -4.34765 -9.50195 v -4.34961 h 0.002 z m 14.84765,0 h 9.5 4.34961 v 4.347657 9.501953 h -4.34961 -9.5 v -9.5 z m 14.84961,0 h 9.5 4.34961 v 4.34961 9.5 h -4.34961 -9.5 V 27.197266 Z M 8,37.699219 h 9.5 4.349609 v 4.347656 9.501953 H 17.5 8 v -9.5 z m 14.849609,0 h 9.5 4.34961 v 4.349609 9.5 h -4.34961 -9.5 v -9.5 z m 14.84961,0 h 9.5 4.349609 v 4.349609 9.5 h -4.349609 -9.5 v -9.5 z m 14.849609,0 h 9.5 4.34961 v 4.349609 h -0.002 v 9.5 h -4.347656 -9.5 v -9.5 z m 14.84961,0 h 9.5 4.347656 v 4.347656 9.501953 h -4.347656 -9.501954 v -4.349609 h 0.002 z m 14.847656,0 h 9.5 4.349609 v 4.349609 9.5 h -4.349609 -9.5 v -9.5 z m 14.849609,0 h 9.499997 4.34961 v 4.349609 9.5 h -4.34961 -9.499997 v -9.5 z m 14.849607,0 h 9.5 4.34961 v 4.349609 9.5 h -4.34961 -9.5 v -9.5 z m 14.84961,0 h 9.5 4.34766 v 4.347656 9.501953 h -4.34766 -9.5 v -9.5 z m 14.84766,0 H 151.14453 155 v 4.349609 9.5 h -3.85547 -9.50195 v -9.5 z m 14.35742,0 h 9.5 4.34961 v 4.347656 9.501953 H 165.5 156 v -9.5 z m 14.84961,0 h 9.5 4.34961 v 4.349609 9.5 h -4.34961 -9.5 v -9.5 z m 14.84961,0 h 9.5 4.34961 v 4.349609 h -0.002 v 9.5 h -4.34766 -9.5 v -9.5 z m 14.84961,0 h 9.5 4.34765 v 4.349609 9.5 h -4.34765 -9.50195 v -4.349609 h 0.002 z m 14.84765,0 h 9.5 4.34961 v 4.347656 9.501953 h -4.34961 -9.5 v -9.5 z m 14.84961,0 h 9.5 4.34961 v 4.349609 9.5 h -4.34961 -9.5 v -9.5 z m 14.84961,0 h 9.5 4.34961 v 4.349609 9.5 h -4.34961 -9.5 v -9.5 z m 14.84961,0 h 9.5 4.34961 v 4.349609 9.5 h -4.34961 -9.5 v -9.5 z m 14.84961,0 h 9.5 4.34766 v 4.347656 9.501953 h -4.34766 -9.5 v -9.5 z m 14.84766,0 H 299.14453 303 v 4.349609 9.5 h -3.85547 -9.50195 v -9.5 z m 14.35742,0 h 9.5 4.34961 v 4.347656 9.501953 H 313.5 304 v -9.5 z m 14.84961,0 h 9.5 4.34961 v 4.349609 9.5 h -4.34961 -9.5 v -9.5 z m 14.84961,0 h 9.5 4.34961 v 4.349609 h -0.002 v 9.5 h -4.34766 -9.5 v -9.5 z m 14.84961,0 h 9.5 4.34765 v 4.349609 9.5 h -4.34765 -9.50195 v -4.349609 h 0.002 z m 14.84765,0 h 9.5 4.34961 v 4.347656 9.501953 h -4.34961 -9.5 v -9.5 z m 14.84961,0 h 9.5 4.34961 v 4.349609 9.5 h -4.34961 -9.5 v -9.5 z M 8,52.548828 h 9.5 4.349609 v 4.347656 9.5 h -9.5 v 0.002 H 8 V 56.89653 Z m 14.849609,0 h 9.5 4.34961 v 4.347656 h -0.002 v 9.5 h -9.5 v 0.002 H 22.849562 V 56.89653 Z m 14.84961,0 h 9.5 4.349609 v 4.347656 h -0.002 v 9.5 h -9.498047 v 0.002 h -4.351562 v -4.34961 h 0.002 z m 14.849609,0 h 9.5 4.34961 v 4.347656 h -0.002 v 9.5 h -9.5 v 0.002 h -4.349609 v -4.34961 h 0.002 z m 14.84961,0 h 9.5 4.347656 v 4.347656 9.5 h -9.5 v 0.002 h -4.34961 v -4.34961 h 0.002 z m 14.847656,0 h 9.5 4.349609 v 4.347656 9.5 h -9.5 v 0.002 H 82.246094 V 56.89653 Z m 14.849609,0 h 9.499997 4.34961 v 4.347656 9.5 h -9.5 v 0.002 h -4.349607 v -9.5 z m 14.849607,0 h 9.5 4.34961 v 4.347656 9.5 h -9.5 v 0.002 h -4.34961 V 56.89653 Z m 14.84961,0 h 9.5 4.34961 v 4.347656 h -0.002 v 9.5 h -9.5 v 0.002 h -4.34766 V 56.89653 Z m 14.84961,0 h 9.5 H 155 v 4.347656 9.5 h -9.5 v 0.002 h -3.85742 v -4.34961 h 0.002 z m 14.35547,0 h 9.5 4.34961 v 4.347656 9.5 h -9.5 v 0.002 H 156 V 56.89653 Z m 14.84961,0 h 9.5 4.34961 v 4.347656 h -0.002 v 9.5 h -9.5 v 0.002 h -4.34766 V 56.89653 Z m 14.84961,0 h 9.5 4.34961 v 4.347656 h -0.002 v 9.5 h -9.5 v 0.002 h -4.34961 v -4.34961 h 0.002 z m 14.84961,0 h 9.5 4.34765 v 4.347656 9.5 h -9.5 v 0.002 h -4.3496 v -4.34961 h 0.002 z m 14.84765,0 h 9.5 4.34961 v 4.347656 9.5 h -9.5 v 0.002 h -4.34961 V 56.89653 Z m 14.84961,0 h 9.5 4.34961 v 4.347656 9.5 h -9.5 v 0.002 h -4.34961 V 56.89653 Z m 14.84961,0 h 9.5 4.34961 v 4.347656 9.5 h -9.5 v 0.002 h -4.34961 v -9.5 z m 14.84961,0 h 9.5 4.34961 v 4.347656 9.5 h -9.5 v 0.002 h -4.34961 V 56.89653 Z m 14.84961,0 h 9.5 4.34961 v 4.347656 h -0.002 v 9.5 h -9.5 v 0.002 h -4.34766 V 56.89653 Z m 14.84961,0 h 9.5 H 303 v 4.347656 9.5 h -9.5 v 0.002 h -3.85742 v -4.34961 h 0.002 z m 14.35547,0 h 9.5 4.34961 v 4.347656 9.5 h -9.5 v 0.002 H 304 V 56.89653 Z m 14.84961,0 h 9.5 4.34961 v 4.347656 h -0.002 v 9.5 h -9.5 v 0.002 h -4.34766 V 56.89653 Z m 14.84961,0 h 9.5 4.34961 v 4.347656 h -0.002 v 9.5 h -9.5 v 0.002 h -4.34961 v -4.34961 h 0.002 z m 14.84961,0 h 9.5 4.34765 v 4.347656 9.5 h -9.5 v 0.002 h -4.3496 v -4.34961 h 0.002 z m 14.84765,0 h 9.5 4.34961 v 4.347656 9.5 h -9.5 v 0.002 h -4.34961 V 56.89653 Z m 14.84961,0 h 9.5 4.34961 v 4.347656 9.5 h -9.5 v 0.002 h -4.34961 v -9.502 z M 17.5,67.396484 h 4.349609 v 4.34961 9.5 H 17.5 8 v -9.5 -4.347656 h 9.5 z m 14.849609,0 h 4.34961 v 4.34961 h -0.002 v 9.5 h -4.347657 -9.5 v -9.5 -4.347656 h 9.5 z m 14.84961,0 h 4.349609 v 4.34961 9.5 h -4.349609 -9.501953 v -4.347656 h 0.002 v -9.5 h 9.5 z m 14.849609,0 h 4.34961 v 4.34961 h -0.002 v 9.5 h -4.347656 -9.5 v -9.5 -4.347656 h 9.5 z m 14.84961,0 h 4.347656 v 4.34961 9.5 h -4.347656 -9.501954 v -4.347656 h 0.002 v -9.5 h 9.5 z m 14.847656,0 h 4.349609 v 4.34961 9.5 h -4.349609 -9.5 v -9.5 -4.347656 h 9.5 z m 14.849606,0 h 4.34961 v 4.34961 9.5 h -4.34961 -9.499997 v -9.5 -4.347656 h 9.499997 z m 14.84961,0 h 4.34961 v 4.34961 9.5 h -4.34961 -9.5 v -9.5 -4.347656 h 9.5 z m 14.84961,0 h 4.34766 v 4.34961 9.5 h -4.34766 -9.5 v -9.5 -4.347656 h 9.5 z m 14.84961,0 H 155 v 4.34961 9.5 h -3.85547 -9.50195 v -9.5 -4.347656 h 9.50195 z m 14.35547,0 h 4.34961 v 4.34961 9.5 H 165.5 156 v -9.5 -4.347656 h 9.5 z m 14.84961,0 h 4.34961 v 4.34961 h -0.002 v 9.5 h -4.34766 -9.5 v -9.5 -4.347656 h 9.5 z m 14.84961,0 h 4.34766 v 4.34961 9.5 h -4.34766 -9.50195 v -4.347656 h 0.002 v -9.5 h 9.5 z m 14.84961,0 h 4.34765 v 4.34961 9.5 h -4.34765 -9.50195 v -9.5 -4.347656 h 9.50195 z m 14.84765,0 h 4.34961 v 4.34961 9.5 h -4.34961 -9.5 v -9.5 -4.347656 h 9.5 z m 14.84961,0 h 4.34961 v 4.34961 9.5 h -4.34961 -9.5 v -9.5 -4.347656 h 9.5 z m 14.84961,0 h 4.34961 v 4.34961 9.5 h -4.34961 -9.5 v -9.5 -4.347656 h 9.5 z m 14.84961,0 h 4.34961 v 4.34961 9.5 h -4.34961 -9.5 v -9.5 -4.347656 h 9.5 z m 14.84961,0 h 4.34766 v 4.34961 9.5 h -4.34766 -9.5 v -9.5 -4.347656 h 9.5 z m 14.84961,0 H 303 v 4.34961 9.5 h -3.85547 -9.50195 v -9.5 -4.347656 h 9.50195 z m 14.35547,0 h 4.34961 v 4.34961 9.5 H 313.5 304 v -9.5 -4.347656 h 9.5 z m 14.84961,0 h 4.34961 v 4.34961 h -0.002 v 9.5 h -4.34766 -9.5 v -9.5 -4.347656 h 9.5 z m 14.84961,0 h 4.34766 v 4.34961 9.5 h -4.34766 -9.50195 v -4.347656 h 0.002 v -9.5 h 9.5 z m 14.84961,0 h 4.34765 v 4.34961 9.5 h -4.34765 -9.50195 v -9.5 -4.347656 h 9.50195 z m 14.84765,0 h 4.34961 v 4.34961 9.5 h -4.34961 -9.5 v -9.5 -4.347656 h 9.5 z m 14.84961,0 h 4.34961 v 4.34961 9.5 h -4.34961 -9.5 v -9.5 -4.347656 h 9.5 z M 8,82.246094 h 9.5 4.349609 v 4.349609 9.5 H 17.5 8 v -9.5 z m 14.849609,0 h 9.5 4.34961 v 4.349609 9.5 h -4.34961 -9.5 v -9.5 z m 14.84961,0 h 9.5 4.349609 v 4.349609 9.5 h -4.349609 -9.5 v -9.5 z m 14.849609,0 h 9.5 4.34961 v 4.349609 h -0.002 v 9.5 h -4.347656 -9.5 v -9.5 z m 14.84961,0 h 9.5 4.347656 v 4.349609 9.5 h -4.347656 -9.501954 v -4.349609 h 0.002 z m 14.847656,0 h 9.5 4.349609 v 4.349609 9.5 h -4.349609 -9.5 v -9.5 z m 14.849609,0 h 9.499997 4.34961 v 4.349609 9.5 h -4.34961 -9.499997 v -9.5 z m 14.849607,0 h 9.5 4.34961 v 4.349609 9.5 h -4.34961 -9.5 v -9.5 z m 14.84961,0 h 9.5 4.34766 v 4.349609 9.5 h -4.34766 -9.5 v -9.5 z m 14.84766,0 H 151.14453 155 v 4.349609 9.5 h -3.85547 -9.50195 v -9.5 z m 14.35742,0 h 9.5 4.34961 v 4.349609 9.5 H 165.5 156 v -9.5 z m 14.84961,0 h 9.5 4.34961 v 4.349609 9.5 h -4.34961 -9.5 v -9.5 z m 14.84961,0 h 9.5 4.34961 v 4.349609 h -0.002 v 9.5 h -4.34766 -9.5 v -9.5 z m 14.84961,0 h 9.5 4.34765 v 4.349609 9.5 h -4.34765 -9.50195 v -4.349609 h 0.002 z m 14.84765,0 h 9.5 4.34961 v 4.349609 9.5 h -4.34961 -9.5 v -9.5 z m 14.84961,0 h 9.5 4.34961 v 4.349609 9.5 h -4.34961 -9.5 v -9.5 z m 14.84961,0 h 9.5 4.34961 v 4.349609 9.5 h -4.34961 -9.5 v -9.5 z m 14.84961,0 h 9.5 4.34961 v 4.349609 9.5 h -4.34961 -9.5 v -9.5 z m 14.84961,0 h 9.5 4.34766 v 4.349609 9.5 h -4.34766 -9.5 v -9.5 z m 14.84766,0 H 299.14453 303 v 4.349609 9.5 h -3.85547 -9.50195 v -9.5 z m 14.35742,0 h 9.5 4.34961 v 4.349609 9.5 H 313.5 304 v -9.5 z m 14.84961,0 h 9.5 4.34961 v 4.349609 9.5 h -4.34961 -9.5 v -9.5 z m 14.84961,0 h 9.5 4.34961 v 4.349609 h -0.002 v 9.5 h -4.34766 -9.5 v -9.5 z m 14.84961,0 h 9.5 4.34765 v 4.349609 9.5 h -4.34765 -9.50195 v -4.349609 h 0.002 z m 14.84765,0 h 9.5 4.34961 v 4.349609 9.5 h -4.34961 -9.5 v -9.5 z m 14.84961,0 h 9.5 4.34961 v 4.349609 9.5 h -4.34961 -9.5 v -9.5 z M 8,97.095703 h 9.5 4.349609 v 4.349607 9.5 H 17.5 8 v -9.5 z m 14.849609,0 h 9.5 4.34961 v 4.349607 9.5 h -4.34961 -9.5 v -9.5 z m 14.84961,0 h 9.5 4.349609 v 4.349607 9.5 h -4.349609 -9.5 v -9.5 z m 14.849609,0 h 9.5 4.34961 v 4.349607 h -0.002 v 9.5 h -4.347656 -9.5 v -9.5 z m 14.84961,0 h 9.5 4.347656 v 4.349607 9.5 h -4.347656 -9.501954 v -4.34961 h 0.002 z m 14.847656,0 h 9.5 4.349609 v 4.349607 9.5 h -4.349609 -9.5 v -9.5 z m 14.849609,0 h 9.499997 4.34961 v 4.349607 9.5 h -4.34961 -9.499997 v -9.5 z m 14.849607,0 h 9.5 4.34961 v 4.349607 9.5 h -4.34961 -9.5 v -9.5 z m 14.84961,0 h 9.5 4.34766 v 4.349607 9.5 h -4.34766 -9.5 v -9.5 z m 14.84766,0 H 151.14453 155 v 4.349607 9.5 h -3.85547 -9.50195 v -9.5 z m 14.35742,0 h 9.5 4.34961 v 4.349607 9.5 H 165.5 156 v -9.5 z m 14.84961,0 h 9.5 4.34961 v 4.349607 9.5 h -4.34961 -9.5 v -9.5 z m 14.84961,0 h 9.5 4.34961 v 4.349607 h -0.002 v 9.5 h -4.34766 -9.5 v -9.5 z m 14.84961,0 h 9.5 4.34765 v 4.349607 9.5 h -4.34765 -9.50195 v -4.34961 h 0.002 z m 14.84765,0 h 9.5 4.34961 v 4.349607 9.5 h -4.34961 -9.5 v -9.5 z m 14.84961,0 h 9.5 4.34961 v 4.349607 9.5 h -4.34961 -9.5 v -9.5 z m 14.84961,0 h 9.5 4.34961 v 4.349607 9.5 h -4.34961 -9.5 v -9.5 z m 14.84961,0 h 9.5 4.34961 v 4.349607 9.5 h -4.34961 -9.5 v -9.5 z m 14.84961,0 h 9.5 4.34766 v 4.349607 9.5 h -4.34766 -9.5 v -9.5 z m 14.84766,0 H 299.14453 303 v 4.349607 9.5 h -3.85547 -9.50195 v -9.5 z m 14.35742,0 h 9.5 4.34961 v 4.349607 9.5 H 313.5 304 v -9.5 z m 14.84961,0 h 9.5 4.34961 v 4.349607 9.5 h -4.34961 -9.5 v -9.5 z m 14.84961,0 h 9.5 4.34961 v 4.349607 h -0.002 v 9.5 h -4.34766 -9.5 v -9.5 z m 14.84961,0 h 9.5 4.34765 v 4.349607 9.5 h -4.34765 -9.50195 v -4.34961 h 0.002 z m 14.84765,0 h 9.5 4.34961 v 4.349607 9.5 h -4.34961 -9.5 v -9.5 z m 14.84961,0 h 9.5 4.34961 v 4.349607 9.5 h -4.34961 -9.5 v -9.5 z M 8,111.94531 h 9.5 4.349609 v 4.34961 9.5 H 17.5 8 v -9.5 z m 14.849609,0 h 9.5 4.34961 v 4.34961 h -0.002 v 9.5 h -4.347657 -9.5 v -9.5 z m 14.84961,0 h 9.5 4.349609 v 4.34961 h -0.002 v 9.5 h -4.347656 -9.501953 v -4.34961 h 0.002 z m 14.849609,0 h 9.5 4.34961 v 4.34961 h -0.002 v 9.5 h -4.347656 -9.501953 v -4.34961 h 0.002 z m 14.84961,0 h 9.5 4.347656 v 4.34961 9.5 h -4.347656 -9.501954 v -4.34961 h 0.002 z m 14.847656,0 h 9.5 4.349609 v 4.34961 9.5 h -4.349609 -9.5 v -9.5 z m 14.849609,0 h 9.499997 4.34961 v 4.34961 9.5 h -4.34961 -9.499997 v -9.5 z m 14.849607,0 h 9.5 4.34961 v 4.34961 9.5 h -4.34961 -9.5 v -9.5 z m 14.84961,0 h 9.5 4.34961 v 4.34961 h -0.002 v 9.5 h -4.34766 -9.5 v -9.5 z m 14.84961,0 h 9.5 H 155 v 4.34961 9.5 h -3.85547 -9.50195 v -4.34961 h 0.002 z m 14.35547,0 h 9.5 4.34961 v 4.34961 9.5 H 165.5 156 v -9.5 z m 14.84961,0 h 9.5 4.34961 v 4.34961 h -0.002 v 9.5 h -4.34766 -9.5 v -9.5 z m 14.84961,0 h 9.5 4.34961 v 4.34961 h -0.002 v 9.5 h -4.34766 -9.50195 v -4.34961 h 0.002 z m 14.84961,0 h 9.5 4.34765 v 4.34961 9.5 h -4.34765 -9.50195 v -4.34961 h 0.002 z m 14.84765,0 h 9.5 4.34961 v 4.34961 9.5 h -4.34961 -9.5 v -9.5 z m 14.84961,0 h 9.5 4.34961 v 4.34961 9.5 h -4.34961 -9.5 v -9.5 z m 14.84961,0 h 9.5 4.34961 v 4.34961 9.5 h -4.34961 -9.5 v -9.5 z m 14.84961,0 h 9.5 4.34961 v 4.34961 9.5 h -4.34961 -9.5 v -9.5 z m 14.84961,0 h 9.5 4.34961 v 4.34961 h -0.002 v 9.5 h -4.34766 -9.5 v -9.5 z m 14.84961,0 h 9.5 H 303 v 4.34961 9.5 h -3.85547 -9.50195 v -4.34961 h 0.002 z m 14.35547,0 h 9.5 4.34961 v 4.34961 9.5 H 313.5 304 v -9.5 z m 14.84961,0 h 9.5 4.34961 v 4.34961 h -0.002 v 9.5 h -4.34766 -9.5 v -9.5 z m 14.84961,0 h 9.5 4.34961 v 4.34961 h -0.002 v 9.5 h -4.34766 -9.50195 v -4.34961 h 0.002 z m 14.84961,0 h 9.5 4.34765 v 4.34961 9.5 h -4.34765 -9.50195 v -4.34961 h 0.002 z m 14.84765,0 h 9.5 4.34961 v 4.34961 9.5 h -4.34961 -9.5 v -9.5 z m 14.84961,0 h 9.5 4.34961 v 4.34961 9.5 h -4.34961 -9.5 v -9.5 z M 8,126.79492 h 9.5 4.349609 v 4.34766 9.5 H 17.5 8 v -9.5 z m 14.849609,0 h 9.5 4.34961 v 4.34766 h -0.002 v 9.5 h -4.347657 -9.5 v -9.5 z m 14.84961,0 h 9.5 4.349609 v 4.34766 9.5 h -4.349609 -9.501953 v -4.34766 h 0.002 z m 14.849609,0 h 9.5 4.34961 v 4.34766 h -0.002 v 9.5 h -4.347656 -9.5 v -9.5 z m 14.84961,0 h 9.5 4.347656 v 4.34766 9.5 h -4.347656 -9.501954 v -4.34766 h 0.002 z m 14.847656,0 h 9.5 4.349609 v 4.34766 9.5 h -4.349609 -9.5 v -9.5 z m 14.849609,0 h 9.499997 4.34961 v 4.34766 9.5 h -4.34961 -9.499997 v -9.5 z m 14.849607,0 h 9.5 4.34961 v 4.34766 9.5 h -4.34961 -9.5 v -9.5 z m 14.84961,0 h 9.5 4.34766 v 4.34766 9.5 h -4.34766 -9.5 v -9.5 z m 14.84766,0 H 151.14453 155 v 4.34766 9.5 h -3.85547 -9.50195 v -9.5 z m 14.35742,0 h 9.5 4.34961 v 4.34766 9.5 H 165.5 156 v -9.5 z m 14.84961,0 h 9.5 4.34961 v 4.34766 h -0.002 v 9.5 h -4.34766 -9.5 v -9.5 z m 14.84961,0 h 9.5 4.34766 v 4.34766 9.5 h -4.34766 -9.50195 v -4.34766 h 0.002 z m 14.84766,0 h 9.50195 4.34765 v 4.34766 9.5 h -4.34765 -9.50195 v -9.5 z m 14.8496,0 h 9.5 4.34961 v 4.34766 9.5 h -4.34961 -9.5 v -9.5 z m 14.84961,0 h 9.5 4.34961 v 4.34766 9.5 h -4.34961 -9.5 v -9.5 z m 14.84961,0 h 9.5 4.34961 v 4.34766 9.5 h -4.34961 -9.5 v -9.5 z m 14.84961,0 h 9.5 4.34961 v 4.34766 9.5 h -4.34961 -9.5 v -9.5 z m 14.84961,0 h 9.5 4.34766 v 4.34766 9.5 h -4.34766 -9.5 v -9.5 z m 14.84766,0 H 299.14453 303 v 4.34766 9.5 h -3.85547 -9.50195 v -9.5 z m 14.35742,0 h 9.5 4.34961 v 4.34766 9.5 H 313.5 304 v -9.5 z m 14.84961,0 h 9.5 4.34961 v 4.34766 h -0.002 v 9.5 h -4.34766 -9.5 v -9.5 z m 14.84961,0 h 9.5 4.34766 v 4.34766 9.5 h -4.34766 -9.50195 v -4.34766 h 0.002 z m 14.84766,0 h 9.50195 4.34765 v 4.34766 9.5 h -4.34765 -9.50195 v -9.5 z m 14.8496,0 h 9.5 4.34961 v 4.34766 9.5 h -4.34961 -9.5 v -9.5 z m 14.84961,0 h 9.5 4.34961 v 4.34766 9.5 h -4.34961 -9.5 v -9.5 z m -236.60547,14.8457 H 258.96094 V 259.43945 H 141.64062 Z M 8,141.64258 h 9.5 4.349609 v 4.34961 9.5 H 17.5 8 v -9.5 z m 14.849609,0 h 9.5 4.34961 v 9.50195 4.34766 h -4.34961 -9.5 v -9.5 z m 14.84961,0 h 9.5 4.349609 v 9.5 4.34961 h -4.349609 -9.5 v -9.5 z m 14.849609,0 h 9.5 4.34961 v 4.34961 h -0.002 v 9.5 h -4.347656 -9.5 v -4.34766 z m 14.84961,0 h 9.5 4.347656 v 4.34961 9.5 h -4.347656 -9.501954 v -4.34961 h 0.002 z m 14.847656,0 h 9.5 4.349609 v 9.50195 4.34766 h -4.349609 -9.5 v -9.5 z m 14.849609,0 h 9.499997 4.34961 v 9.5 4.34961 h -4.34961 -9.499997 v -9.5 z m 14.849607,0 h 9.5 4.34961 v 9.5 4.34961 h -4.34961 -9.5 v -4.34766 z m 14.84961,0 h 9.5 4.34766 v 4.34961 9.5 h -4.34766 -9.5 v -9.5 z m 133.15039,0 h 9.5 4.34961 v 9.5 4.34961 h -4.34961 -9.5 v -4.34766 z m 14.84961,0 h 9.5 4.34766 v 4.34961 9.5 h -4.34766 -9.5 v -9.5 z m 14.84766,0 H 299.14453 303 v 4.34961 9.5 h -3.85547 -9.50195 v -9.5 z m 14.35742,0 h 9.5 4.34961 v 4.34961 9.5 H 313.5 304 v -9.5 z m 14.84961,0 h 9.5 4.34961 v 9.50195 4.34766 h -4.34961 -9.5 v -9.5 z m 14.84961,0 h 9.5 4.34961 v 4.34961 h -0.002 v 9.5 h -4.34766 -9.5 v -9.5 z m 14.84961,0 h 9.5 4.34765 v 9.5 4.34961 h -4.34765 -9.50195 v -4.34766 h 0.002 z m 14.84765,0 h 9.5 4.34961 v 4.34961 9.5 h -4.34961 -9.5 v -9.5 z m 14.84961,0 h 9.5 4.34961 v 9.50195 4.34766 h -4.34961 -9.5 v -9.5 z M 8,156.49219 h 9.5 4.349609 v 4.34961 9.5 H 17.5 8 v -9.5 z m 14.849609,0 h 9.5 4.34961 v 4.34961 9.5 h -4.34961 -9.5 v -9.5 z m 14.84961,0 h 9.5 4.349609 v 4.34961 9.5 h -4.349609 -9.5 v -9.5 z m 14.849609,0 h 9.5 4.34961 v 4.34961 h -0.002 v 9.5 h -4.347656 -9.5 v -9.5 z m 14.84961,0 h 9.5 4.347656 v 4.34961 9.5 h -4.347656 -9.501954 v -4.34961 h 0.002 z m 14.847656,0 h 9.5 4.349609 v 4.34961 9.5 h -4.349609 -9.5 v -9.5 z m 14.849609,0 h 9.499997 4.34961 v 4.34961 9.5 h -4.34961 -9.499997 v -9.5 z m 14.849607,0 h 9.5 4.34961 v 4.34961 9.5 h -4.34961 -9.5 v -9.5 z m 14.84961,0 h 9.5 4.34766 v 4.34961 9.5 h -4.34766 -9.5 v -9.5 z m 133.15039,0 h 9.5 4.34961 v 4.34961 9.5 h -4.34961 -9.5 v -9.5 z m 14.84961,0 h 9.5 4.34766 v 4.34961 9.5 h -4.34766 -9.5 v -9.5 z m 14.84766,0 H 299.14453 303 v 4.34961 9.5 h -3.85547 -9.50195 v -9.5 z m 14.35742,0 h 9.5 4.34961 v 4.34961 9.5 H 313.5 304 v -9.5 z m 14.84961,0 h 9.5 4.34961 v 4.34961 9.5 h -4.34961 -9.5 v -9.5 z m 14.84961,0 h 9.5 4.34961 v 4.34961 h -0.002 v 9.5 h -4.34766 -9.5 v -9.5 z m 14.84961,0 h 9.5 4.34765 v 4.34961 9.5 h -4.34765 -9.50195 v -4.34961 h 0.002 z m 14.84765,0 h 9.5 4.34961 v 4.34961 9.5 h -4.34961 -9.5 v -9.5 z m 14.84961,0 h 9.5 4.34961 v 4.34961 9.5 h -4.34961 -9.5 v -9.5 z M 8,171.3418 h 9.5 4.349609 v 4.34961 9.5 H 17.5 8 v -9.5 z m 14.849609,0 h 9.5 4.34961 v 4.34961 h -0.002 v 9.5 h -4.347657 -9.5 v -9.5 z m 14.84961,0 h 9.5 4.349609 v 4.34961 h -0.002 v 9.5 h -4.347656 -9.501953 v -4.34961 h 0.002 z m 14.849609,0 h 9.5 4.34961 v 4.34961 h -0.002 v 9.5 h -4.347656 -9.501953 v -4.34961 h 0.002 z m 14.84961,0 h 9.5 4.347656 v 4.34961 9.5 h -4.347656 -9.501954 v -4.34961 h 0.002 z m 14.847656,0 h 9.5 4.349609 v 4.34961 9.5 h -4.349609 -9.5 v -9.5 z m 14.849609,0 h 9.499997 4.34961 v 4.34961 9.5 h -4.34961 -9.499997 v -9.5 z m 14.849607,0 h 9.5 4.34961 v 4.34961 9.5 h -4.34961 -9.5 v -9.5 z m 14.84961,0 h 9.5 4.34961 v 4.34961 h -0.002 v 9.5 h -4.34766 -9.5 v -9.5 z m 133.15039,0 h 9.5 4.34961 v 4.34961 9.5 h -4.34961 -9.5 v -9.5 z m 14.84961,0 h 9.5 4.34961 v 4.34961 h -0.002 v 9.5 h -4.34766 -9.5 v -9.5 z m 14.84961,0 h 9.5 H 303 v 4.34961 9.5 h -3.85547 -9.50195 v -4.34961 h 0.002 z m 14.35547,0 h 9.5 4.34961 v 4.34961 9.5 H 313.5 304 v -9.5 z m 14.84961,0 h 9.5 4.34961 v 4.34961 h -0.002 v 9.5 h -4.34766 -9.5 v -9.5 z m 14.84961,0 h 9.5 4.34961 v 4.34961 h -0.002 v 9.5 h -4.34766 -9.50195 v -4.34961 h 0.002 z m 14.84961,0 h 9.5 4.34765 v 4.34961 9.5 h -4.34765 -9.50195 v -4.34961 h 0.002 z m 14.84765,0 h 9.5 4.34961 v 4.34961 9.5 h -4.34961 -9.5 v -9.5 z m 14.84961,0 h 9.5 4.34961 v 4.34961 9.5 h -4.34961 -9.5 v -9.5 z M 8,186.19141 h 9.5 4.349609 v 4.34961 9.5 H 17.5 8 v -9.5 z m 14.849609,0 h 9.5 4.34961 v 4.34961 h -0.002 v 9.5 h -4.347657 -9.5 v -9.5 z m 14.84961,0 h 9.5 4.349609 v 4.34961 9.5 h -4.349609 -9.501953 v -4.34961 h 0.002 z m 14.849609,0 h 9.5 4.34961 v 4.34961 h -0.002 v 9.5 h -4.347656 -9.5 v -9.5 z m 14.84961,0 h 9.5 4.347656 v 4.34961 9.5 h -4.347656 -9.501954 v -4.34961 h 0.002 z m 14.847656,0 h 9.5 4.349609 v 4.34961 9.5 h -4.349609 -9.5 v -9.5 z m 14.849609,0 h 9.499997 4.34961 v 4.34961 9.5 h -4.34961 -9.499997 v -9.5 z m 14.849607,0 h 9.5 4.34961 v 4.34961 9.5 h -4.34961 -9.5 v -9.5 z m 14.84961,0 h 9.5 4.34766 v 4.34961 9.5 h -4.34766 -9.5 v -9.5 z m 133.15039,0 h 9.5 4.34961 v 4.34961 9.5 h -4.34961 -9.5 v -9.5 z m 14.84961,0 h 9.5 4.34766 v 4.34961 9.5 h -4.34766 -9.5 v -9.5 z m 14.84766,0 H 299.14453 303 v 4.34961 9.5 h -3.85547 -9.50195 v -9.5 z m 14.35742,0 h 9.5 4.34961 v 4.34961 9.5 H 313.5 304 v -9.5 z m 14.84961,0 h 9.5 4.34961 v 4.34961 h -0.002 v 9.5 h -4.34766 -9.5 v -9.5 z m 14.84961,0 h 9.5 4.34766 v 4.34961 9.5 h -4.34766 -9.50195 v -4.34961 h 0.002 z m 14.84766,0 h 9.50195 4.34765 v 4.34961 9.5 h -4.34765 -9.50195 v -9.5 z m 14.8496,0 h 9.5 4.34961 v 4.34961 9.5 h -4.34961 -9.5 v -9.5 z m 14.84961,0 h 9.5 4.34961 v 4.34961 9.5 h -4.34961 -9.5 v -9.5 z M 8,201.04102 h 9.5 4.349609 v 4.34765 9.50195 H 17.5 8 v -9.5 z m 14.849609,0 h 9.5 4.34961 v 4.3496 9.5 h -4.34961 -9.5 v -9.50195 z m 14.84961,0 h 9.5 4.349609 v 4.3496 9.5 h -4.349609 -9.5 v -9.5 z m 14.849609,0 h 9.5 4.34961 v 4.34765 h -0.002 v 9.50195 h -4.347656 -9.5 v -9.5 z m 14.84961,0 h 9.5 4.347656 v 4.34765 9.50195 h -4.347656 -9.501954 v -4.3496 h 0.002 z m 14.847656,0 h 9.5 4.349609 v 4.3496 9.5 h -4.349609 -9.5 v -9.50195 z m 14.849609,0 h 9.499997 4.34961 v 4.3496 9.5 h -4.34961 -9.499997 v -9.5 z m 14.849607,0 h 9.5 4.34961 v 4.34765 9.50195 h -4.34961 -9.5 v -9.5 z m 14.84961,0 h 9.5 4.34766 v 4.34765 9.50195 h -4.34766 -9.5 v -9.5 z m 133.15039,0 h 9.5 4.34961 v 4.34765 9.50195 h -4.34961 -9.5 v -9.5 z m 14.84961,0 h 9.5 4.34766 v 4.34765 9.50195 h -4.34766 -9.5 v -9.5 z m 14.84766,0 H 299.14453 303 v 4.34765 9.50195 h -3.85547 -9.50195 v -9.50195 z m 14.35742,0 h 9.5 4.34961 v 4.34765 9.50195 H 313.5 304 v -9.5 z m 14.84961,0 h 9.5 4.34961 v 4.3496 9.5 h -4.34961 -9.5 v -9.50195 z m 14.84961,0 h 9.5 4.34961 v 4.3496 h -0.002 v 9.5 h -4.34766 -9.5 v -9.5 z m 14.84961,0 h 9.5 4.34765 v 4.34765 9.50195 h -4.34765 -9.50195 v -4.3496 h 0.002 z m 14.84765,0 h 9.5 4.34961 v 4.34765 9.50195 h -4.34961 -9.5 v -9.5 z m 14.84961,0 h 9.5 4.34961 v 4.3496 9.5 h -4.34961 -9.5 v -9.50195 z M 8,215.89062 h 9.5 4.349609 v 4.34766 9.5 h -9.5 v 0.002 H 8 v -9.50195 z m 14.849609,0 h 9.5 4.34961 v 4.34766 9.5 h -9.501953 v 0.002 h -4.347657 v -9.50195 z m 14.84961,0 h 9.5 4.349609 v 4.34766 9.5 h -9.5 v 0.002 h -4.349609 v -9.50195 z m 14.849609,0 h 9.5 4.34961 v 4.34766 h -0.002 v 9.5 h -9.5 v 0.002 h -4.347656 v -9.50195 z m 14.84961,0 h 9.5 4.347656 v 4.34766 9.5 h -9.5 v 0.002 h -4.34961 v -4.34961 h 0.002 z m 14.847656,0 h 9.5 4.349609 v 4.34766 9.5 h -9.5 v 0.002 h -4.349609 v -9.50195 z m 14.849609,0 h 9.499997 4.34961 v 4.34766 9.5 h -9.5 v 0.002 h -4.349607 v -9.50195 z m 14.849607,0 h 9.5 4.34961 v 4.34766 9.5 h -9.5 v 0.002 h -4.34961 v -9.50195 z m 14.84961,0 h 9.5 4.34766 v 4.34766 9.5 h -9.5 v 0.002 h -4.34766 v -9.50195 z m 133.15039,0 h 9.5 4.34961 v 4.34766 9.5 h -9.5 v 0.002 h -4.34961 v -9.50195 z m 14.84961,0 h 9.5 4.34766 v 4.34766 9.5 h -9.5 v 0.002 h -4.34766 v -9.50195 z m 14.84766,0 H 299.14453 303 v 4.34766 9.5 h -9.5 v 0.002 h -3.85742 v -9.50195 z m 14.35742,0 h 9.5 4.34961 v 4.34766 9.5 h -9.5 v 0.002 H 304 v -9.50195 z m 14.84961,0 h 9.5 4.34961 v 4.34766 9.5 h -9.50195 v 0.002 h -4.34766 v -9.50195 z m 14.84961,0 h 9.5 4.34961 v 4.34766 h -0.002 v 9.5 h -9.5 v 0.002 h -4.34766 v -9.50195 z m 14.84961,0 h 9.5 4.34765 v 4.34766 9.5 h -9.5 v 0.002 h -4.3496 v -4.34961 h 0.002 z m 14.84765,0 h 9.5 4.34961 v 4.34766 9.5 h -9.5 v 0.002 h -4.34961 v -9.50195 z m 14.84961,0 h 9.5 4.34961 v 4.34766 9.5 h -9.5 v 0.002 h -4.34961 v -9.50195 z M 17.5,230.73828 h 4.349609 v 9.5 4.34961 H 17.5 8 v -4.34766 -9.5 h 9.5 z m 14.849609,0 h 4.34961 v 4.34961 h -0.002 v 9.5 h -4.347657 -9.5 v -4.34766 -9.5 h 9.5 z m 14.84961,0 h 4.349609 v 4.34961 h -0.002 v 9.5 h -4.347656 -9.5 v -9.5 -4.34766 h 9.5 z m 14.849609,0 h 4.34961 v 4.34961 h -0.002 v 9.5 h -4.347656 -9.5 v -9.5 -4.34766 h 9.5 z m 14.84961,0 h 4.347656 v 9.5 4.34961 h -4.347656 -9.5 v -4.34766 -9.5 h 9.5 z m 14.847656,0 h 4.349609 v 4.34961 9.5 h -4.349609 -9.5 v -4.34766 -9.5 h 9.5 z m 14.849606,0 h 4.34961 v 4.34961 9.5 h -4.34961 -9.499997 v -9.5 -4.34766 h 9.499997 z m 14.84961,0 h 4.34961 v 4.34961 9.5 h -4.34961 -9.5 v -9.5 -4.34766 h 9.5 z m 14.84961,0 h 4.34961 v 4.34961 h -0.002 v 9.5 h -4.34766 -9.5 v -9.5 -4.34766 h 9.5 z m 133.15039,0 h 4.34961 v 4.34961 9.5 h -4.34961 -9.5 v -9.5 -4.34766 h 9.5 z m 14.84961,0 h 4.34961 v 4.34961 h -0.002 v 9.5 h -4.34766 -9.5 v -9.5 -4.34766 h 9.5 z m 14.84961,0 H 303 v 4.34961 9.5 h -3.85547 -9.50195 v -4.34766 h 0.002 v -9.5 h 9.5 z m 14.35547,0 h 4.34961 v 9.5 4.34961 H 313.5 304 v -9.5 -4.34766 h 9.5 z m 14.84961,0 h 4.34961 v 4.34961 h -0.002 v 9.5 h -4.34766 -9.5 v -4.34766 -9.5 h 9.5 z m 14.84961,0 h 4.34961 v 4.34961 h -0.002 v 9.5 h -4.34766 -9.5 v -9.5 -4.34766 h 9.5 z m 14.84961,0 h 4.34765 v 4.34961 9.5 h -4.34765 -9.50195 v -4.34766 h 0.002 v -9.5 h 9.5 z m 14.84765,0 h 4.34961 v 9.5 4.34961 h -4.34961 -9.5 v -9.5 -4.34766 h 9.5 z m 14.84961,0 h 4.34961 v 4.34961 9.5 h -4.34961 -9.5 v -4.34766 -9.5 h 9.5 z M 17.5,245.58789 h 4.349609 v 4.34961 9.5 H 17.5 8 v -4.34961 h 0.00195 v -9.49805 H 17.5 Z m 14.849609,0 h 4.34961 v 4.34961 h -0.002 v 9.5 h -4.347657 -9.5 v -9.5 -4.34766 h 9.5 z m 14.84961,0 h 4.349609 v 9.5 4.34961 h -4.349609 -9.501953 v -4.34766 h 0.002 v -9.5 h 9.5 z m 14.849609,0 h 4.34961 v 4.34961 h -0.002 v 9.5 h -4.347656 -9.5 v -9.5 -4.34766 h 9.5 z m 14.84961,0 h 4.347656 v 4.34961 9.5 h -4.347656 -9.501954 v -4.34961 h 0.002 v -9.49805 h 9.5 z m 14.847656,0 h 4.349609 v 4.34961 9.5 h -4.349609 -9.5 v -9.5 -4.34766 h 9.5 z m 14.849606,0 h 4.34961 v 9.5 4.34961 h -4.34961 -9.499997 v -4.34766 -9.5 h 9.499997 z m 14.84961,0 h 4.34961 v 4.34961 9.5 h -4.34961 -9.5 v -9.5 -4.34766 h 9.5 z m 14.84961,0 h 4.34766 v 4.34961 9.5 h -4.34766 -9.5 v -9.5 -4.34766 h 9.5 z m 133.15039,0 h 4.34961 v 4.34961 9.5 h -4.34961 -9.5 v -9.5 -4.34766 h 9.5 z m 14.84961,0 h 4.34766 v 4.34961 9.5 h -4.34766 -9.5 v -9.5 -4.34766 h 9.5 z m 14.84961,0 H 303 v 4.34961 9.5 h -3.85547 -9.50195 v -4.34961 h 0.002 v -9.49805 h 9.5 z m 14.35547,0 h 4.34961 v 4.34961 9.5 H 313.5 304 v -4.34961 h 0.002 v -9.49805 h 9.498 z m 14.84961,0 h 4.34961 v 4.34961 h -0.002 v 9.5 h -4.34766 -9.5 v -9.5 -4.34766 h 9.5 z m 14.84961,0 h 4.34766 v 9.5 4.34961 h -4.34766 -9.50195 v -4.34766 h 0.002 v -9.5 h 9.5 z m 14.84961,0 h 4.34765 v 4.34961 9.5 h -4.34765 -9.50195 v -4.34961 h 0.002 v -9.49805 h 9.5 z m 14.84765,0 h 4.34961 v 4.34961 9.5 h -4.34961 -9.5 v -4.34961 h 0.002 v -9.49805 h 9.49804 z m 14.84961,0 h 4.34961 v 4.34961 9.5 h -4.34961 -9.5 v -9.5 -4.34766 h 9.5 z M 8,260.4375 h 9.5 4.349609 v 4.34766 9.50195 H 17.5 8 v -9.50195 z m 14.849609,0 h 9.5 4.34961 v 4.34961 9.5 h -4.34961 -9.5 v -9.50195 z m 14.84961,0 h 9.5 4.349609 v 4.34961 9.5 h -4.349609 -9.5 v -9.5 z m 14.849609,0 h 9.5 4.34961 v 4.34766 h -0.002 v 9.50195 h -4.347656 -9.5 v -9.5 z m 14.84961,0 h 9.5 4.347656 v 4.34766 9.50195 h -4.347656 -9.501954 v -4.34961 h 0.002 z m 14.847656,0 h 9.5 4.349609 v 4.34961 9.5 h -4.349609 -9.5 v -9.50195 z m 14.849609,0 h 9.499997 4.34961 v 4.34961 9.5 h -4.34961 -9.499997 v -9.5 z m 14.849607,0 h 9.5 4.34961 v 4.34766 9.50195 h -4.34961 -9.5 v -9.5 z m 14.84961,0 h 9.5 4.34766 v 4.34766 9.50195 h -4.34766 -9.5 v -9.5 z m 14.84766,0 H 151.14453 155 v 4.34766 9.50195 h -3.85547 -9.50195 v -9.50195 z m 14.35742,0 h 9.5 4.34961 v 4.34766 9.50195 H 165.5 156 v -9.50195 z m 14.84961,0 h 9.5 4.34961 v 4.34961 9.5 h -4.34961 -9.5 v -9.50195 z m 14.84961,0 h 9.5 4.34961 v 4.34961 h -0.002 v 9.5 h -4.34766 -9.5 v -9.5 z m 14.84961,0 h 9.5 4.34765 v 4.34766 9.50195 h -4.34765 -9.50195 v -4.34961 h 0.002 z m 14.84765,0 h 9.5 4.34961 v 4.34766 9.50195 h -4.34961 -9.5 v -9.5 z m 14.84961,0 h 9.5 4.34961 v 4.34961 9.5 h -4.34961 -9.5 v -9.50195 z m 14.84961,0 h 9.5 4.34961 v 4.34961 9.5 h -4.34961 -9.5 v -9.5 z m 14.84961,0 h 9.5 4.34961 v 4.34766 9.50195 h -4.34961 -9.5 v -9.5 z m 14.84961,0 h 9.5 4.34766 v 4.34766 9.50195 h -4.34766 -9.5 v -9.5 z m 14.84766,0 H 299.14453 303 v 4.34766 9.50195 h -3.85547 -9.50195 v -9.50195 z m 14.35742,0 h 9.5 4.34961 v 4.34766 9.50195 H 313.5 304 v -9.50195 z m 14.84961,0 h 9.5 4.34961 v 4.34961 9.5 h -4.34961 -9.5 v -9.50195 z m 14.84961,0 h 9.5 4.34961 v 4.34961 h -0.002 v 9.5 h -4.34766 -9.5 v -9.5 z m 14.84961,0 h 9.5 4.34765 v 4.34766 9.50195 h -4.34765 -9.50195 v -4.34961 h 0.002 z m 14.84765,0 h 9.5 4.34961 v 4.34766 9.50195 h -4.34961 -9.5 v -9.5 z m 14.84961,0 h 9.5 4.34961 v 4.34961 9.5 h -4.34961 -9.5 v -9.50195 z M 8,275.28711 h 9.5 4.349609 v 4.34766 9.5 h -9.5 v 0.002 H 8 v -9.50195 z m 14.849609,0 h 9.5 4.34961 v 4.34766 9.5 h -9.501953 v 0.002 h -4.347657 v -9.50195 z m 14.84961,0 h 9.5 4.349609 v 4.34766 9.5 h -9.5 v 0.002 h -4.349609 v -9.50195 z m 14.849609,0 h 9.5 4.34961 v 4.34766 h -0.002 v 9.5 h -9.5 v 0.002 h -4.347656 v -9.50195 z m 14.84961,0 h 9.5 4.347656 v 4.34766 9.5 h -9.5 v 0.002 h -4.34961 v -4.34961 h 0.002 z m 14.847656,0 h 9.5 4.349609 v 4.34766 9.5 h -9.5 v 0.002 h -4.349609 v -9.50195 z m 14.849609,0 h 9.499997 4.34961 v 4.34766 9.5 h -9.5 v 0.002 h -4.349607 v -9.50195 z m 14.849607,0 h 9.5 4.34961 v 4.34766 9.5 h -9.5 v 0.002 h -4.34961 v -9.50195 z m 14.84961,0 h 9.5 4.34766 v 4.34766 9.5 h -9.5 v 0.002 h -4.34766 v -9.50195 z m 14.84766,0 H 151.14453 155 v 4.34766 9.5 h -9.5 v 0.002 h -3.85742 v -9.50195 z m 14.35742,0 h 9.5 4.34961 v 4.34766 9.5 h -9.5 v 0.002 H 156 v -9.50195 z m 14.84961,0 h 9.5 4.34961 v 4.34766 9.5 h -9.50195 v 0.002 h -4.34766 v -9.50195 z m 14.84961,0 h 9.5 4.34961 v 4.34766 h -0.002 v 9.5 h -9.5 v 0.002 h -4.34766 v -9.50195 z m 14.84961,0 h 9.5 4.34765 v 4.34766 9.5 h -9.5 v 0.002 h -4.3496 v -4.34961 h 0.002 z m 14.84765,0 h 9.5 4.34961 v 4.34766 9.5 h -9.5 v 0.002 h -4.34961 v -9.50195 z m 14.84961,0 h 9.5 4.34961 v 4.34766 9.5 h -9.5 v 0.002 h -4.34961 v -9.50195 z m 14.84961,0 h 9.5 4.34961 v 4.34766 9.5 h -9.5 v 0.002 h -4.34961 v -9.50195 z m 14.84961,0 h 9.5 4.34961 v 4.34766 9.5 h -9.5 v 0.002 h -4.34961 v -9.50195 z m 14.84961,0 h 9.5 4.34766 v 4.34766 9.5 h -9.5 v 0.002 h -4.34766 v -9.50195 z m 14.84766,0 H 299.14453 303 v 4.34766 9.5 h -9.5 v 0.002 h -3.85742 v -9.50195 z m 14.35742,0 h 9.5 4.34961 v 4.34766 9.5 h -9.5 v 0.002 H 304 v -9.50195 z m 14.84961,0 h 9.5 4.34961 v 4.34766 9.5 h -9.50195 v 0.002 h -4.34766 v -9.50195 z m 14.84961,0 h 9.5 4.34961 v 4.34766 h -0.002 v 9.5 h -9.5 v 0.002 h -4.34766 v -9.50195 z m 14.84961,0 h 9.5 4.34765 v 4.34766 9.5 h -9.5 v 0.002 h -4.3496 v -4.34961 h 0.002 z m 14.84765,0 h 9.5 4.34961 v 4.34766 9.5 h -9.5 v 0.002 h -4.34961 v -9.50195 z m 14.84961,0 h 9.5 4.34961 v 4.34766 9.5 h -9.5 v 0.002 h -4.34961 v -9.50195 z M 17.5,290.13477 h 4.349609 v 9.5 V 303 H 17.5 8 v -9.5 -3.36328 h 9.5 z m 14.849609,0 h 4.34961 V 293.5 h -0.002 v 9.5 h -4.347657 -9.5 v -9.5 -3.36328 h 9.5 z m 14.84961,0 h 4.349609 V 293.5 h -0.002 v 9.5 h -4.347656 -9.501953 v -3.36328 h 0.002 v -9.5 h 9.5 z m 14.849609,0 h 4.34961 V 293.5 h -0.002 v 9.5 h -4.347656 -9.501953 v -3.36328 h 0.002 v -9.5 h 9.5 z m 14.84961,0 h 4.347656 v 9.5 V 303 h -4.347656 -9.501954 v -3.36328 h 0.002 v -9.5 h 9.5 z m 14.847656,0 h 4.349609 V 293.5 303 h -4.349609 -9.5 v -3.36328 -9.5 h 9.5 z m 14.849606,0 h 4.34961 V 293.5 303 h -4.34961 -9.499997 v -9.5 -3.36328 h 9.499997 z m 14.84961,0 h 4.34961 V 293.5 303 h -4.34961 -9.5 v -9.5 -3.36328 h 9.5 z m 14.84961,0 h 4.34961 V 293.5 h -0.002 v 9.5 h -4.34766 -9.5 v -9.5 -3.36328 h 9.5 z m 14.84961,0 H 155 V 293.5 303 h -3.85547 -9.50195 v -3.36328 h 0.002 v -9.5 h 9.5 z m 14.35547,0 h 4.34961 v 9.5 V 303 H 165.5 156 v -9.5 -3.36328 h 9.5 z m 14.84961,0 h 4.34961 V 293.5 h -0.002 v 9.5 h -4.34766 -9.5 v -9.5 -3.36328 h 9.5 z m 14.84961,0 h 4.34961 V 293.5 h -0.002 v 9.5 h -4.34766 -9.50195 v -3.36328 h 0.002 v -9.5 h 9.5 z m 14.84961,0 h 4.34765 V 293.5 303 h -4.34765 -9.50195 v -3.36328 h 0.002 v -9.5 h 9.5 z m 14.84765,0 h 4.34961 v 9.5 V 303 h -4.34961 -9.5 v -9.5 -3.36328 h 9.5 z m 14.84961,0 h 4.34961 V 293.5 303 h -4.34961 -9.5 v -3.36328 -9.5 h 9.5 z m 14.84961,0 h 4.34961 V 293.5 303 h -4.34961 -9.5 v -9.5 -3.36328 h 9.5 z m 14.84961,0 h 4.34961 V 293.5 303 h -4.34961 -9.5 v -9.5 -3.36328 h 9.5 z m 14.84961,0 h 4.34961 V 293.5 h -0.002 v 9.5 h -4.34766 -9.5 v -9.5 -3.36328 h 9.5 z m 14.84961,0 H 303 V 293.5 303 h -3.85547 -9.50195 v -3.36328 h 0.002 v -9.5 h 9.5 z m 14.35547,0 h 4.34961 v 9.5 V 303 H 313.5 304 v -9.5 -3.36328 h 9.5 z m 14.84961,0 h 4.34961 V 293.5 h -0.002 v 9.5 h -4.34766 -9.5 v -9.5 -3.36328 h 9.5 z m 14.84961,0 h 4.34961 V 293.5 h -0.002 v 9.5 h -4.34766 -9.50195 v -3.36328 h 0.002 v -9.5 h 9.5 z m 14.84961,0 h 4.34765 V 293.5 303 h -4.34765 -9.50195 v -3.36328 h 0.002 v -9.5 h 9.5 z m 14.84765,0 h 4.34961 v 9.5 V 303 h -4.34961 -9.5 v -9.5 -3.36328 h 9.5 z m 14.84961,0 h 4.34961 V 293.5 303 h -4.34961 -9.5 v -3.36328 -9.5 h 9.5 z M 8,304 h 9.5 4.349609 v 4.34961 9.5 H 17.5 8 v -9.5 z m 14.849609,0 h 9.5 4.34961 v 4.34961 h -0.002 v 9.5 h -4.347657 -9.5 v -9.5 z m 14.84961,0 h 9.5 4.349609 v 9.5 4.34961 h -4.349609 -9.501953 v -4.34766 h 0.002 z m 14.849609,0 h 9.5 4.34961 v 4.34961 h -0.002 v 9.5 h -4.347656 -9.5 v -9.5 z m 14.84961,0 h 9.5 4.347656 v 4.34961 9.5 H 76.898438 67.396484 V 313.5 h 0.002 z m 14.847656,0 h 9.5 4.349609 v 4.34961 9.5 h -4.349609 -9.5 v -9.5 z m 14.849609,0 h 9.499997 4.34961 v 9.5 4.34961 h -4.34961 -9.499997 v -4.34766 z m 14.849607,0 h 9.5 4.34961 v 4.34961 9.5 h -4.34961 -9.5 v -9.5 z m 14.84961,0 h 9.5 4.34766 v 4.34961 9.5 h -4.34766 -9.5 v -9.5 z m 14.84766,0 H 151.14453 155 v 4.34961 9.5 h -3.85547 -9.50195 v -9.5 z M 156,304 h 9.5 4.34961 v 4.34961 9.5 H 165.5 156 v -9.5 z m 14.84961,0 h 9.5 4.34961 v 4.34961 h -0.002 v 9.5 h -4.34766 -9.5 v -9.5 z m 14.84961,0 h 9.5 4.34766 v 9.5 4.34961 h -4.34766 -9.50195 v -4.34766 h 0.002 z m 14.84766,0 h 9.50195 4.34765 v 4.34961 9.5 h -4.34765 -9.50195 v -9.5 z m 14.8496,0 h 9.5 4.34961 v 4.34961 9.5 h -4.34961 -9.5 v -9.5 z m 14.84961,0 h 9.5 4.34961 v 4.34961 9.5 h -4.34961 -9.5 v -9.5 z m 14.84961,0 h 9.5 4.34961 v 9.5 4.34961 h -4.34961 -9.5 v -4.34766 z m 14.84961,0 h 9.5 4.34961 v 4.34961 9.5 h -4.34961 -9.5 v -9.5 z m 14.84961,0 h 9.5 4.34766 v 4.34961 9.5 h -4.34766 -9.5 v -9.5 z m 14.84766,0 H 299.14453 303 v 4.34961 9.5 h -3.85547 -9.50195 v -9.5 z M 304,304 h 9.5 4.34961 v 4.34961 9.5 H 313.5 304 v -9.5 z m 14.84961,0 h 9.5 4.34961 v 4.34961 h -0.002 v 9.5 h -4.34766 -9.5 v -9.5 z m 14.84961,0 h 9.5 4.34766 v 9.5 4.34961 h -4.34766 -9.50195 v -4.34766 h 0.002 z m 14.84766,0 h 9.50195 4.34765 v 4.34961 9.5 h -4.34765 -9.50195 v -9.5 z m 14.8496,0 h 9.5 4.34961 v 4.34961 9.5 h -4.34961 -9.5 v -9.5 z m 14.84961,0 h 9.5 4.34961 v 4.34961 9.5 h -4.34961 -9.5 v -9.5 z M 8,318.84961 h 9.5 4.349609 v 4.34766 9.50195 H 17.5 8 v -9.5 z m 14.849609,0 h 9.5 4.34961 v 4.34961 9.5 h -4.34961 -9.5 v -9.50195 z m 14.84961,0 h 9.5 4.349609 v 4.34961 9.5 h -4.349609 -9.5 v -9.5 z m 14.849609,0 h 9.5 4.34961 v 4.34766 h -0.002 v 9.50195 h -4.347656 -9.5 v -9.5 z m 14.84961,0 h 9.5 4.347656 v 4.34766 9.50195 h -4.347656 -9.501954 v -4.34961 h 0.002 z m 14.847656,0 h 9.5 4.349609 v 4.34961 9.5 h -4.349609 -9.5 v -9.50195 z m 14.849609,0 h 9.499997 4.34961 v 4.34961 9.5 h -4.34961 -9.499997 v -9.5 z m 14.849607,0 h 9.5 4.34961 v 4.34766 9.50195 h -4.34961 -9.5 v -9.5 z m 14.84961,0 h 9.5 4.34766 v 4.34766 9.50195 h -4.34766 -9.5 v -9.5 z m 14.84766,0 H 151.14453 155 v 4.34766 9.50195 h -3.85547 -9.50195 v -9.50195 z m 14.35742,0 h 9.5 4.34961 v 4.34766 9.50195 H 165.5 156 v -9.5 z m 14.84961,0 h 9.5 4.34961 v 4.34961 9.5 h -4.34961 -9.5 v -9.50195 z m 14.84961,0 h 9.5 4.34961 v 4.34961 h -0.002 v 9.5 h -4.34766 -9.5 v -9.5 z m 14.84961,0 h 9.5 4.34765 v 4.34766 9.50195 h -4.34765 -9.50195 v -4.34961 h 0.002 z m 14.84765,0 h 9.5 4.34961 v 4.34766 9.50195 h -4.34961 -9.5 v -9.5 z m 14.84961,0 h 9.5 4.34961 v 4.34961 9.5 h -4.34961 -9.5 v -9.50195 z m 14.84961,0 h 9.5 4.34961 v 4.34961 9.5 h -4.34961 -9.5 v -9.5 z m 14.84961,0 h 9.5 4.34961 v 4.34766 9.50195 h -4.34961 -9.5 v -9.5 z m 14.84961,0 h 9.5 4.34766 v 4.34766 9.50195 h -4.34766 -9.5 v -9.5 z m 14.84766,0 H 299.14453 303 v 4.34766 9.50195 h -3.85547 -9.50195 v -9.50195 z m 14.35742,0 h 9.5 4.34961 v 4.34766 9.50195 H 313.5 304 v -9.5 z m 14.84961,0 h 9.5 4.34961 v 4.34961 9.5 h -4.34961 -9.5 v -9.50195 z m 14.84961,0 h 9.5 4.34961 v 4.34961 h -0.002 v 9.5 h -4.34766 -9.5 v -9.5 z m 14.84961,0 h 9.5 4.34765 v 4.34766 9.50195 h -4.34765 -9.50195 v -4.34961 h 0.002 z m 14.84765,0 h 9.5 4.34961 v 4.34766 9.50195 h -4.34961 -9.5 v -9.5 z m 14.84961,0 h 9.5 4.34961 v 4.34961 9.5 h -4.34961 -9.5 v -9.50195 z M 8,333.69922 h 9.5 4.349609 v 4.34766 9.5 h -9.5 v 0.002 H 8 v -9.50195 z m 14.849609,0 h 9.5 4.34961 v 4.34766 9.5 h -9.501953 v 0.002 h -4.347657 v -9.50195 z m 14.84961,0 h 9.5 4.349609 v 4.34766 9.5 h -9.5 v 0.002 h -4.349609 v -9.50195 z m 14.849609,0 h 9.5 4.34961 v 4.34766 h -0.002 v 9.5 h -9.5 v 0.002 h -4.347656 v -9.50195 z m 14.84961,0 h 9.5 4.347656 v 4.34766 9.5 h -9.5 v 0.002 h -4.34961 v -4.34961 h 0.002 z m 14.847656,0 h 9.5 4.349609 v 4.34766 9.5 h -9.5 v 0.002 h -4.349609 v -9.50195 z m 14.849609,0 h 9.499997 4.34961 v 4.34766 9.5 h -9.5 v 0.002 h -4.349607 v -9.50195 z m 14.849607,0 h 9.5 4.34961 v 4.34766 9.5 h -9.5 v 0.002 h -4.34961 v -9.50195 z m 14.84961,0 h 9.5 4.34766 v 4.34766 9.5 h -9.5 v 0.002 h -4.34766 v -9.50195 z m 14.84766,0 H 151.14453 155 v 4.34766 9.5 h -9.5 v 0.002 h -3.85742 v -9.50195 z m 14.35742,0 h 9.5 4.34961 v 4.34766 9.5 h -9.5 v 0.002 H 156 v -9.50195 z m 14.84961,0 h 9.5 4.34961 v 4.34766 9.5 h -9.50195 v 0.002 h -4.34766 v -9.50195 z m 14.84961,0 h 9.5 4.34961 v 4.34766 h -0.002 v 9.5 h -9.5 v 0.002 h -4.34766 v -9.50195 z m 14.84961,0 h 9.5 4.34765 v 4.34766 9.5 h -9.5 v 0.002 h -4.3496 v -4.34961 h 0.002 z m 14.84765,0 h 9.5 4.34961 v 4.34766 9.5 h -9.5 v 0.002 h -4.34961 v -9.50195 z m 14.84961,0 h 9.5 4.34961 v 4.34766 9.5 h -9.5 v 0.002 h -4.34961 v -9.50195 z m 14.84961,0 h 9.5 4.34961 v 4.34766 9.5 h -9.5 v 0.002 h -4.34961 v -9.50195 z m 14.84961,0 h 9.5 4.34961 v 4.34766 9.5 h -9.5 v 0.002 h -4.34961 v -9.50195 z m 14.84961,0 h 9.5 4.34766 v 4.34766 9.5 h -9.5 v 0.002 h -4.34766 v -9.50195 z m 14.84766,0 H 299.14453 303 v 4.34766 9.5 h -9.5 v 0.002 h -3.85742 v -9.50195 z m 14.35742,0 h 9.5 4.34961 v 4.34766 9.5 h -9.5 v 0.002 H 304 v -9.50195 z m 14.84961,0 h 9.5 4.34961 v 4.34766 9.5 h -9.50195 v 0.002 h -4.34766 v -9.50195 z m 14.84961,0 h 9.5 4.34961 v 4.34766 h -0.002 v 9.5 h -9.5 v 0.002 h -4.34766 v -9.50195 z m 14.84961,0 h 9.5 4.34765 v 4.34766 9.5 h -9.5 v 0.002 h -4.3496 v -4.34961 h 0.002 z m 14.84765,0 h 9.5 4.34961 v 4.34766 9.5 h -9.5 v 0.002 h -4.34961 v -9.50195 z m 14.84961,0 h 9.5 4.34961 v 4.34766 9.5 h -9.5 v 0.002 h -4.34961 v -9.50195 z M 17.5,348.54688 h 4.349609 v 9.5 4.3496 H 17.5 8 v -9.5 -4.34765 h 9.5 z m 14.849609,0 h 4.34961 v 4.3496 h -0.002 v 9.5 h -4.347657 -9.5 v -4.34765 -9.5 h 9.5 z m 14.84961,0 h 4.349609 v 4.3496 h -0.002 v 9.5 h -4.347656 -9.501953 v -4.34765 h 0.002 v -9.5 h 9.5 z m 14.849609,0 h 4.34961 v 4.3496 h -0.002 v 9.5 h -4.347656 -9.501953 v -4.34765 h 0.002 v -9.5 h 9.5 z m 14.84961,0 h 4.347656 v 9.5 4.3496 h -4.347656 -9.501954 v -4.34765 h 0.002 v -9.5 h 9.5 z m 14.847656,0 h 4.349609 v 4.3496 9.5 h -4.349609 -9.5 v -4.34765 -9.5 h 9.5 z m 14.849606,0 h 4.34961 v 4.3496 9.5 h -4.34961 -9.499997 v -9.5 -4.34765 h 9.499997 z m 14.84961,0 h 4.34961 v 4.3496 9.5 h -4.34961 -9.5 v -9.5 -4.34765 h 9.5 z m 14.84961,0 h 4.34961 v 4.3496 h -0.002 v 9.5 h -4.34766 -9.5 v -9.5 -4.34765 h 9.5 z m 14.84961,0 H 155 v 4.3496 9.5 h -3.85547 -9.50195 v -4.34765 h 0.002 v -9.5 h 9.5 z m 14.35547,0 h 4.34961 v 9.5 4.3496 H 165.5 156 v -9.5 -4.34765 h 9.5 z m 14.84961,0 h 4.34961 v 4.3496 h -0.002 v 9.5 h -4.34766 -9.5 v -4.34765 -9.5 h 9.5 z m 14.84961,0 h 4.34961 v 4.3496 h -0.002 v 9.5 h -4.34766 -9.50195 v -4.34765 h 0.002 v -9.5 h 9.5 z m 14.84961,0 h 4.34765 v 4.3496 9.5 h -4.34765 -9.50195 v -4.34765 h 0.002 v -9.5 h 9.5 z m 14.84765,0 h 4.34961 v 9.5 4.3496 h -4.34961 -9.5 v -9.5 -4.34765 h 9.5 z m 14.84961,0 h 4.34961 v 4.3496 9.5 h -4.34961 -9.5 v -4.34765 -9.5 h 9.5 z m 14.84961,0 h 4.34961 v 4.3496 9.5 h -4.34961 -9.5 v -9.5 -4.34765 h 9.5 z m 14.84961,0 h 4.34961 v 4.3496 9.5 h -4.34961 -9.5 v -9.5 -4.34765 h 9.5 z m 14.84961,0 h 4.34961 v 4.3496 h -0.002 v 9.5 h -4.34766 -9.5 v -9.5 -4.34765 h 9.5 z m 14.84961,0 H 303 v 4.3496 9.5 h -3.85547 -9.50195 v -4.34765 h 0.002 v -9.5 h 9.5 z m 14.35547,0 h 4.34961 v 9.5 4.3496 H 313.5 304 v -9.5 -4.34765 h 9.5 z m 14.84961,0 h 4.34961 v 4.3496 h -0.002 v 9.5 h -4.34766 -9.5 v -4.34765 -9.5 h 9.5 z m 14.84961,0 h 4.34961 v 4.3496 h -0.002 v 9.5 h -4.34766 -9.50195 v -4.34765 h 0.002 v -9.5 h 9.5 z m 14.84961,0 h 4.34765 v 4.3496 9.5 h -4.34765 -9.50195 v -4.34765 h 0.002 v -9.5 h 9.5 z m 14.84765,0 h 4.34961 v 9.5 4.3496 h -4.34961 -9.5 v -9.5 -4.34765 h 9.5 z m 14.84961,0 h 4.34961 v 4.3496 9.5 h -4.34961 -9.5 v -4.34765 -9.5 h 9.5 z M 8,363.39648 h 9.5 4.349609 v 4.34961 9.5 H 17.5 8 v -9.5 z m 14.849609,0 h 9.5 4.34961 v 4.34961 h -0.002 v 9.5 h -4.347657 -9.5 v -9.5 z m 14.84961,0 h 9.5 4.349609 v 9.5 4.34961 h -4.349609 -9.501953 v -4.34765 h 0.002 z m 14.849609,0 h 9.5 4.34961 v 4.34961 h -0.002 v 9.5 h -4.347656 -9.5 v -9.5 z m 14.84961,0 h 9.5 4.347656 v 4.34961 9.5 h -4.347656 -9.501954 v -4.34961 h 0.002 z m 14.847656,0 h 9.5 4.349609 v 4.34961 9.5 h -4.349609 -9.5 v -9.5 z m 14.849609,0 h 9.499997 4.34961 v 9.5 4.34961 h -4.34961 -9.499997 v -4.34765 z m 14.849607,0 h 9.5 4.34961 v 4.34961 9.5 h -4.34961 -9.5 v -9.5 z m 14.84961,0 h 9.5 4.34766 v 4.34961 9.5 h -4.34766 -9.5 v -9.5 z m 14.84766,0 H 151.14453 155 v 4.34961 9.5 h -3.85547 -9.50195 v -9.5 z m 14.35742,0 h 9.5 4.34961 v 4.34961 9.5 H 165.5 156 v -9.5 z m 14.84961,0 h 9.5 4.34961 v 4.34961 h -0.002 v 9.5 h -4.34766 -9.5 v -9.5 z m 14.84961,0 h 9.5 4.34766 v 9.5 4.34961 h -4.34766 -9.50195 v -4.34765 h 0.002 z m 14.84766,0 h 9.50195 4.34765 v 4.34961 9.5 h -4.34765 -9.50195 v -9.5 z m 14.8496,0 h 9.5 4.34961 v 4.34961 9.5 h -4.34961 -9.5 v -9.5 z m 14.84961,0 h 9.5 4.34961 v 4.34961 9.5 h -4.34961 -9.5 v -9.5 z m 14.84961,0 h 9.5 4.34961 v 9.5 4.34961 h -4.34961 -9.5 v -4.34765 z m 14.84961,0 h 9.5 4.34961 v 4.34961 9.5 h -4.34961 -9.5 v -9.5 z m 14.84961,0 h 9.5 4.34766 v 4.34961 9.5 h -4.34766 -9.5 v -9.5 z m 14.84766,0 H 299.14453 303 v 4.34961 9.5 h -3.85547 -9.50195 v -9.5 z m 14.35742,0 h 9.5 4.34961 v 4.34961 9.5 H 313.5 304 v -9.5 z m 14.84961,0 h 9.5 4.34961 v 4.34961 h -0.002 v 9.5 h -4.34766 -9.5 v -9.5 z m 14.84961,0 h 9.5 4.34766 v 9.5 4.34961 h -4.34766 -9.50195 v -4.34765 h 0.002 z m 14.84766,0 h 9.50195 4.34765 v 4.34961 9.5 h -4.34765 -9.50195 v -9.5 z m 14.8496,0 h 9.5 4.34961 v 4.34961 9.5 h -4.34961 -9.5 v -9.5 z m 14.84961,0 h 9.5 4.34961 v 4.34961 9.5 h -4.34961 -9.5 v -9.5 z M 8,378.24609 h 9.5 4.349609 v 4.34961 9.5 H 17.5 8 v -9.5 z m 14.849609,0 h 9.5 4.34961 v 4.34961 9.5 h -4.34961 -9.5 v -9.5 z m 14.84961,0 h 9.5 4.349609 v 4.34961 9.5 h -4.349609 -9.5 v -9.5 z m 14.849609,0 h 9.5 4.34961 v 4.34961 h -0.002 v 9.5 h -4.347656 -9.5 v -9.5 z m 14.84961,0 h 9.5 4.347656 v 4.34961 9.5 h -4.347656 -9.501954 v -4.34961 h 0.002 z m 14.847656,0 h 9.5 4.349609 v 4.34961 9.5 h -4.349609 -9.5 v -9.5 z m 14.849609,0 h 9.499997 4.34961 v 4.34961 9.5 h -4.34961 -9.499997 v -9.5 z m 14.849607,0 h 9.5 4.34961 v 4.34961 9.5 h -4.34961 -9.5 v -9.5 z m 14.84961,0 h 9.5 4.34766 v 4.34961 9.5 h -4.34766 -9.5 v -9.5 z m 14.84766,0 H 151.14453 155 v 4.34961 9.5 h -3.85547 -9.50195 v -9.5 z m 14.35742,0 h 9.5 4.34961 v 4.34961 9.5 H 165.5 156 v -9.5 z m 14.84961,0 h 9.5 4.34961 v 4.34961 9.5 h -4.34961 -9.5 v -9.5 z m 14.84961,0 h 9.5 4.34961 v 4.34961 h -0.002 v 9.5 h -4.34766 -9.5 v -9.5 z m 14.84961,0 h 9.5 4.34765 v 4.34961 9.5 h -4.34765 -9.50195 v -4.34961 h 0.002 z m 14.84765,0 h 9.5 4.34961 v 4.34961 9.5 h -4.34961 -9.5 v -9.5 z m 14.84961,0 h 9.5 4.34961 v 4.34961 9.5 h -4.34961 -9.5 v -9.5 z m 14.84961,0 h 9.5 4.34961 v 4.34961 9.5 h -4.34961 -9.5 v -9.5 z m 14.84961,0 h 9.5 4.34961 v 4.34961 9.5 h -4.34961 -9.5 v -9.5 z m 14.84961,0 h 9.5 4.34766 v 4.34961 9.5 h -4.34766 -9.5 v -9.5 z m 14.84766,0 H 299.14453 303 v 4.34961 9.5 h -3.85547 -9.50195 v -9.5 z m 14.35742,0 h 9.5 4.34961 v 4.34961 9.5 H 313.5 304 v -9.5 z m 14.84961,0 h 9.5 4.34961 v 4.34961 9.5 h -4.34961 -9.5 v -9.5 z m 14.84961,0 h 9.5 4.34961 v 4.34961 h -0.002 v 9.5 h -4.34766 -9.5 v -9.5 z m 14.84961,0 h 9.5 4.34765 v 4.34961 9.5 h -4.34765 -9.50195 v -4.34961 h 0.002 z m 14.84765,0 h 9.5 4.34961 v 4.34961 9.5 h -4.34961 -9.5 v -9.5 z m 14.84961,0 h 9.5 4.34961 v 4.34961 9.5 h -4.34961 -9.5 v -9.5 z" />
  <g
     id="shape-3ea86dca-abcb-80e7-8006-7b1a4fa89f0b"
     rx="0"
     ry="0"
     transform="translate(-3,-3)">
    <circle
       cx="167"
       cy="239"
       style="fill:#b1b2b5;fill-opacity:1"
       id="ellipse2"
       r="6.5" />
    <circle
       cx="203"
       cy="185"
       style="fill:#b1b2b5;fill-opacity:1"
       id="ellipse3"
       r="6.5" />
    <circle
       cx="185"
       cy="239"
       style="fill:#b1b2b5;fill-opacity:1"
       id="ellipse4"
       r="6.5" />
    <circle
       cx="203"
       cy="167"
       style="fill:#b1b2b5;fill-opacity:1"
       id="ellipse5"
       r="6.5" />
    <circle
       cx="239"
       cy="203"
       style="fill:#b1b2b5;fill-opacity:1"
       id="ellipse6"
       r="6.5" />
    <circle
       cx="185"
       cy="167"
       style="fill:#b1b2b5;fill-opacity:1"
       id="ellipse7"
       r="6.5" />
    <circle
       cx="239"
       cy="221"
       style="fill:#b1b2b5;fill-opacity:1"
       id="ellipse8"
       r="6.5" />
    <circle
       cx="221"
       cy="239"
       style="fill:#b1b2b5;fill-opacity:1"
       id="ellipse9"
       r="6.5" />
    <circle
       cx="221"
       cy="203"
       style="fill:#b1b2b5;fill-opacity:1"
       id="ellipse10"
       r="6.5" />
    <circle
       cx="185"
       cy="203"
       style="fill:#ffffff;fill-opacity:1"
       id="ellipse11"
       r="6.5" />
    <circle
       cx="185"
       cy="185"
       style="fill:#ffffff;fill-opacity:1"
       id="ellipse12"
       r="6.5" />
    <circle
       cx="167"
       cy="221"
       style="fill:#ffffff;fill-opacity:1"
       id="ellipse13"
       r="6.5" />
    <circle
       cx="167"
       cy="167"
       style="fill:#ffffff;fill-opacity:1"
       id="ellipse14"
       r="6.5" />
    <circle
       cx="203"
       cy="221"
       style="fill:#ffffff;fill-opacity:1"
       id="ellipse15"
       r="6.5" />
    <circle
       cx="203"
       cy="239"
       style="fill:#ffffff;fill-opacity:1"
       id="ellipse16"
       r="6.5" />
    <circle
       cx="239"
       cy="185"
       style="fill:#ffffff;fill-opacity:1"
       id="ellipse17"
       r="6.5" />
    <circle
       cx="221"
       cy="167"
       style="fill:#ffffff;fill-opacity:1"
       id="ellipse18"
       r="6.5" />
    <circle
       cx="239"
       cy="239"
       style="fill:#07bef8;fill-opacity:1"
       id="ellipse19"
       r="6.5" />
    <circle
       cx="203"
       cy="203"
       style="fill:#07bef8;fill-opacity:1"
       id="ellipse20"
       r="6.5" />
    <circle
       cx="185"
       cy="221"
       style="fill:#07bef8;fill-opacity:1"
       id="ellipse21"
       r="6.5" />
    <circle
       cx="167"
       cy="203"
       style="fill:#07bef8;fill-opacity:1"
       id="ellipse22"
       r="6.5" />
    <circle
       cx="221"
       cy="185"
       style="fill:#07bef8;fill-opacity:1"
       id="ellipse23"
       r="6.5" />
    <circle
       cx="221"
       cy="221"
       style="fill:#07bef8;fill-opacity:1"
       id="ellipse24"
       r="6.5" />
    <circle
       cx="239"
       cy="167"
       style="fill:#07bef8;fill-opacity:1"
       id="ellipse25"
       r="6.5" />
    <circle
       cx="167"
       cy="185"
       style="fill:#07bef8;fill-opacity:1"
       id="ellipse26"
       r="6.5" />
  </g>
</svg>
